HIERARCHY
ROOT Hips
{
    OFFSET 0.000000 0.000000 0.000000
    CHANNELS 6 Xposition Yposition Zposition Zrotation Xrotation Yrotation
        JOINT Spine1
        {
            OFFSET -0.000000 23.269398 0.000000
            CHANNELS 3 Zrotation Xrotation Yrotation
            JOINT Neck
            {
                OFFSET -0.000000 18.032967 0.000000
                CHANNELS 3 Zrotation Xrotation Yrotation
                JOINT Head
                {
                    OFFSET -0.000000 13.091072 1.689171
                    CHANNELS 3 Zrotation Xrotation Yrotation
                    End Site
                    {
                        OFFSET -0.000000 16.891708 0.000000
                    }
                }
            }
            JOINT LeftShoulder
            {
                OFFSET 3.336773 14.146137 -0.012206
                CHANNELS 3 Zrotation Xrotation Yrotation
                JOINT LeftArm
                {
                    OFFSET 11.765518 0.000000 0.000000
                    CHANNELS 3 Zrotation Xrotation Yrotation
                    JOINT LeftForeArm
                    {
                        OFFSET 25.163450 0.000000 0.000000
                        CHANNELS 3 Zrotation Xrotation Yrotation
                        JOINT LeftHand
                        {
                            OFFSET 21.783554 0.000000 0.000000
                            CHANNELS 3 Zrotation Xrotation Yrotation
                            End Site
                            {
                                OFFSET 12.668781 0.000000 0.000000
                            }
                        }
                    }
                }
            }
            JOINT RightShoulder
            {
                OFFSET -3.409204 14.146137 -0.012206
                CHANNELS 3 Zrotation Xrotation Yrotation
                JOINT RightArm
                {
                    OFFSET -11.765518 0.000000 0.000000
                    CHANNELS 3 Zrotation Xrotation Yrotation
                    JOINT RightForeArm
                    {
                        OFFSET -25.163450 0.000000 0.000000
                        CHANNELS 3 Zrotation Xrotation Yrotation
                        JOINT RightHand
                        {
                            OFFSET -21.783554 0.000000 0.000000
                            CHANNELS 3 Zrotation Xrotation Yrotation
                            End Site
                            {
                                OFFSET -12.668781 0.000000 0.000000
                            }
                        }
                    }
                }
            }
        }
        JOINT LeftUpLeg
    {
        OFFSET 8.445854 0.000000 0.000000
        CHANNELS 3 Zrotation Xrotation Yrotation
        JOINT LeftLeg
        {
            OFFSET -0.000000 -40.674755 0.000000
            CHANNELS 3 Zrotation Xrotation Yrotation
            JOINT LeftFoot
            {
                OFFSET -0.000000 -37.111794 0.000000
                CHANNELS 3 Zrotation Xrotation Yrotation
                JOINT LeftToeBase
                {
                    OFFSET -0.000000 -5.489805 12.668781
                    CHANNELS 3 Zrotation Xrotation Yrotation
                    End Site
                    {
                        OFFSET -0.000000 0.000000 3.378341
                    }
                }
            }
        }
    }
    JOINT RightUpLeg
    {
        OFFSET -8.445854 0.000000 0.000000
        CHANNELS 3 Zrotation Xrotation Yrotation
        JOINT RightLeg
        {
            OFFSET -0.000000 -40.674755 0.000000
            CHANNELS 3 Zrotation Xrotation Yrotation
            JOINT RightFoot
            {
                OFFSET -0.000000 -37.111794 0.000000
                CHANNELS 3 Zrotation Xrotation Yrotation
                JOINT RightToeBase
                {
                    OFFSET -0.000000 -5.489805 12.668781
                    CHANNELS 3 Zrotation Xrotation Yrotation
                    End Site
                    {
                        OFFSET -0.000000 0.000000 3.378341
                    }
                }
            }
        }
    }
}
MOTION
Frames:    8
Frame Time:    0.008333
-11.411056    83.249268    12.424032    -1.459321    -4.173373    -20.685762    0.568056    14.808520    -5.636483    1.201748    -0.021629    -1.899387    -0.645515    1.490302    -1.711012    -0.334093    8.352496    6.956873    -52.176781    31.590607    -31.398075    4.985082    1.731286    -18.095526    4.430990    2.245309    -7.236057    -2.620111    7.767169    -0.573585    36.260559    43.937813    43.182213    -3.129251    1.307879    28.164667    -10.470985    1.373953    7.840155    13.465735    -6.599849    5.085526    -3.111620    35.122509    16.374262    -14.154975    -2.167965    18.386599    -8.183702    -9.152789    4.096074    4.124465    5.316469    12.648829    -1.497287    2.129468    4.835383    8.686652    -13.518176    2.549615    1.608101    -3.530073    1.728408    
-11.529150    83.236305    12.550694    -1.495486    -4.485450    -21.202728    0.370061    15.019245    -5.327265    1.098736    0.275515    -1.879743    -0.594038    1.669754    -1.707977    -0.326730    8.327167    6.993211    -52.194527    31.408966    -31.048342    4.939430    1.728720    -18.047428    4.625049    2.224670    -7.146575    -2.643898    7.795726    -0.643296    36.002193    44.209190    43.459507    -2.852628    1.014790    28.191050    -10.839078    1.000107    7.699797    13.713632    -6.899079    4.980971    -3.608796    36.652924    16.435215    -12.301462    -1.853132    18.150423    -8.108152    -8.845054    4.780181    4.118620    5.642059    12.661416    -1.624620    2.319532    5.515888    8.730017    -13.698750    2.326261    1.134294    -1.180355    -1.473415    
-11.659406    83.232391    12.658781    -1.397258    -4.807084    -21.643545    0.036342    15.221928    -5.005923    1.051564    0.546713    -1.791934    -0.615115    1.892647    -1.616876    -0.328697    8.335943    7.033511    -52.240482    31.098385    -30.770281    4.867631    1.746660    -17.912046    4.769210    2.215395    -7.167686    -2.624569    7.858259    -0.663640    35.858513    44.341438    43.569695    -2.568257    0.679207    28.381039    -11.293677    0.579398    7.572979    13.781831    -7.191443    4.598435    -4.350549    38.009556    16.711851    -11.799016    -1.747887    18.991945    -8.061251    -9.071457    3.830369    4.005145    5.839800    12.646862    -1.728995    2.666954    5.849149    8.810703    -13.904729    2.424069    1.123980    -1.170401    -1.457908    
-11.709653    83.198158    12.799774    -1.315560    -5.127260    -22.158009    -0.363476    15.333437    -4.772708    1.003839    0.881384    -1.693714    -0.531748    2.065150    -1.530348    -0.275026    8.383592    7.195225    -52.239460    30.834881    -30.485714    4.776227    1.912992    -17.856405    5.239696    2.342941    -7.002414    -2.597115    7.939752    -0.713172    35.744366    44.568863    43.730171    -2.337231    0.544723    28.636087    -13.427501    0.115699    8.700020    13.795128    -7.586220    4.367659    -4.886207    39.399601    16.750092    -11.280878    -1.336988    19.090176    -7.241127    -7.851037    4.261229    3.769914    6.022763    12.700809    -1.708816    3.019921    6.184841    8.871457    -14.093907    2.563208    1.088374    -1.019987    -1.627624    
-11.798346    83.185257    12.946955    -1.373024    -5.401059    -22.674706    -0.567176    15.450788    -4.569811    0.901261    1.355712    -1.594956    -0.341957    1.960760    -1.467160    -0.199642    8.472362    7.432154    -52.361351    30.613018    -30.234575    4.719463    1.903469    -17.785505    5.307559    2.317237    -7.004665    -2.618608    7.720529    -0.388194    36.226566    44.907833    42.993725    -2.113279    -0.027534    29.185539    -13.408874    -0.473847    8.467862    13.905575    -7.780940    4.050357    -5.473131    40.605255    16.679239    -9.685707    -1.485592    19.213020    -6.281504    -6.915656    3.250730    3.730752    6.232389    12.802170    -1.751009    3.367785    6.479972    8.932071    -14.294204    2.674405    1.656121    -3.558781    1.620145    
-11.902227    83.210411    13.094728    -1.548047    -5.547401    -23.111149    -0.564937    15.615019    -4.419385    0.796073    1.511237    -1.502548    -0.340702    2.286536    -1.385096    -0.265463    8.430973    7.470975    -52.382034    30.327791    -29.852118    4.703733    1.831360    -17.829348    5.316799    2.246852    -6.942855    -2.639562    7.809455    -0.450648    36.251987    44.934509    43.052605    -1.702146    -0.870709    29.620481    -12.426306    -1.195515    7.113193    14.183264    -8.120992    3.692103    -6.035982    41.789249    16.397745    -8.897913    -1.204484    19.215910    -6.281100    -7.231511    2.316632    3.875062    6.380641    12.781760    -1.830266    3.701859    6.807175    8.983827    -14.451092    2.800141    1.680050    -3.598700    1.622522    
-11.977667    83.210419    13.280283    -1.390126    -6.000531    -23.733921    -0.966385    16.003460    -3.857373    0.661853    1.862381    -1.425732    -0.254052    2.172292    -1.336464    -0.321496    8.372224    7.391133    -52.623020    29.917648    -29.428968    4.746075    1.790495    -17.780964    5.259848    2.214832    -6.926050    -2.686885    7.823036    -0.567516    36.340961    44.915962    42.965572    -1.546690    -1.216851    30.253590    -12.972569    -1.611853    7.149024    13.978662    -8.161113    3.434332    -6.563251    42.731117    16.049160    -8.447388    -1.934578    18.988365    -7.943043    -9.363006    2.334022    3.543385    6.652446    12.970166    -1.900061    4.128763    7.145465    9.024956    -14.634803    2.926355    1.715737    -3.671502    1.655476    
-12.058249    83.199448    13.452875    -1.456957    -6.253924    -24.259066    -1.144083    16.359510    -3.567585    0.539602    1.937894    -1.350307    -0.163296    2.384114    -1.289555    -0.418925    8.243282    7.336039    -52.655491    29.508577    -29.003235    4.708882    1.749702    -17.805700    5.351501    2.168399    -6.826031    -2.660045    7.803893    -0.626373    36.498734    44.888035    42.925343    -1.553352    -1.513223    30.822849    -13.389178    -1.921359    7.122974    14.052934    -8.440175    2.923931    -7.255146    43.771244    15.901587    -8.875990    -2.853402    19.149923    -7.599804    -9.053062    1.904899    3.525451    6.727835    13.084273    -1.953342    4.750868    7.431693    9.031197    -14.874492    3.074134    1.777524    -3.786379    1.688265    
